<mxfile host="app.diagrams.net" agent="Mozilla/5.0 (Windows NT 10.0; Win64; x64) AppleWebKit/537.36 (KHTML, like Gecko) Chrome/131.0.0.0 Safari/537.36" version="26.0.6">
  <diagram name="Страница — 1" id="iwlYikpwrfQ1v3cVavcZ">
    <mxGraphModel dx="3434" dy="1418" grid="1" gridSize="10" guides="1" tooltips="1" connect="1" arrows="1" fold="1" page="1" pageScale="1" pageWidth="827" pageHeight="1169" math="0" shadow="0">
      <root>
        <mxCell id="0" />
        <mxCell id="1" parent="0" />
        <mxCell id="iNHvDvuXJU0Yc5A8mvKU-60" value="" style="rounded=0;whiteSpace=wrap;html=1;" vertex="1" parent="1">
          <mxGeometry x="-550" y="210" width="670" height="2270" as="geometry" />
        </mxCell>
        <mxCell id="iNHvDvuXJU0Yc5A8mvKU-6" value="&lt;div&gt;&lt;br/&gt;&lt;/div&gt;" style="rounded=0;whiteSpace=wrap;html=1;" vertex="1" parent="1">
          <mxGeometry x="120" y="210" width="180" height="2270" as="geometry" />
        </mxCell>
        <mxCell id="iNHvDvuXJU0Yc5A8mvKU-7" value="" style="rounded=0;whiteSpace=wrap;html=1;" vertex="1" parent="1">
          <mxGeometry x="300" y="210" width="180" height="2270" as="geometry" />
        </mxCell>
        <mxCell id="iNHvDvuXJU0Yc5A8mvKU-8" value="" style="rounded=0;whiteSpace=wrap;html=1;" vertex="1" parent="1">
          <mxGeometry x="480" y="210" width="180" height="2270" as="geometry" />
        </mxCell>
        <mxCell id="iNHvDvuXJU0Yc5A8mvKU-9" value="" style="rounded=0;whiteSpace=wrap;html=1;" vertex="1" parent="1">
          <mxGeometry x="660" y="210" width="180" height="2270" as="geometry" />
        </mxCell>
        <mxCell id="iNHvDvuXJU0Yc5A8mvKU-10" value="" style="rounded=0;whiteSpace=wrap;html=1;" vertex="1" parent="1">
          <mxGeometry x="840" y="210" width="180" height="2270" as="geometry" />
        </mxCell>
        <mxCell id="iNHvDvuXJU0Yc5A8mvKU-11" value="" style="rounded=0;whiteSpace=wrap;html=1;" vertex="1" parent="1">
          <mxGeometry x="1020" y="210" width="180" height="2270" as="geometry" />
        </mxCell>
        <mxCell id="iNHvDvuXJU0Yc5A8mvKU-12" value="" style="rounded=0;whiteSpace=wrap;html=1;" vertex="1" parent="1">
          <mxGeometry x="1200" y="210" width="180" height="2260" as="geometry" />
        </mxCell>
        <mxCell id="iNHvDvuXJU0Yc5A8mvKU-13" value="Salesman" style="text;html=1;align=center;verticalAlign=middle;whiteSpace=wrap;rounded=0;" vertex="1" parent="1">
          <mxGeometry x="180" y="210" width="60" height="30" as="geometry" />
        </mxCell>
        <mxCell id="iNHvDvuXJU0Yc5A8mvKU-14" value="Seller" style="text;html=1;align=center;verticalAlign=middle;whiteSpace=wrap;rounded=0;" vertex="1" parent="1">
          <mxGeometry x="360" y="210" width="60" height="30" as="geometry" />
        </mxCell>
        <mxCell id="iNHvDvuXJU0Yc5A8mvKU-15" value="Customer" style="text;html=1;align=center;verticalAlign=middle;whiteSpace=wrap;rounded=0;" vertex="1" parent="1">
          <mxGeometry x="540" y="210" width="60" height="30" as="geometry" />
        </mxCell>
        <mxCell id="iNHvDvuXJU0Yc5A8mvKU-16" value="Company" style="text;html=1;align=center;verticalAlign=middle;whiteSpace=wrap;rounded=0;" vertex="1" parent="1">
          <mxGeometry x="720" y="210" width="60" height="30" as="geometry" />
        </mxCell>
        <mxCell id="iNHvDvuXJU0Yc5A8mvKU-17" value="Manager" style="text;html=1;align=center;verticalAlign=middle;whiteSpace=wrap;rounded=0;" vertex="1" parent="1">
          <mxGeometry x="900" y="210" width="60" height="30" as="geometry" />
        </mxCell>
        <mxCell id="iNHvDvuXJU0Yc5A8mvKU-18" value="State tax services" style="text;html=1;align=center;verticalAlign=middle;whiteSpace=wrap;rounded=0;" vertex="1" parent="1">
          <mxGeometry x="1050" y="210" width="130" height="30" as="geometry" />
        </mxCell>
        <mxCell id="iNHvDvuXJU0Yc5A8mvKU-19" value="Payment authorization service" style="text;html=1;align=center;verticalAlign=middle;whiteSpace=wrap;rounded=0;" vertex="1" parent="1">
          <mxGeometry x="1200" y="210" width="180" height="30" as="geometry" />
        </mxCell>
        <mxCell id="iNHvDvuXJU0Yc5A8mvKU-30" style="edgeStyle=orthogonalEdgeStyle;rounded=0;orthogonalLoop=1;jettySize=auto;html=1;" edge="1" parent="1" source="iNHvDvuXJU0Yc5A8mvKU-24" target="iNHvDvuXJU0Yc5A8mvKU-29">
          <mxGeometry relative="1" as="geometry" />
        </mxCell>
        <mxCell id="iNHvDvuXJU0Yc5A8mvKU-24" value="" style="ellipse;html=1;shape=startState;fillColor=#000000;strokeColor=#ff0000;" vertex="1" parent="1">
          <mxGeometry x="555" y="270" width="30" height="30" as="geometry" />
        </mxCell>
        <mxCell id="iNHvDvuXJU0Yc5A8mvKU-47" style="edgeStyle=orthogonalEdgeStyle;rounded=0;orthogonalLoop=1;jettySize=auto;html=1;entryX=1;entryY=0.5;entryDx=0;entryDy=0;" edge="1" parent="1" source="iNHvDvuXJU0Yc5A8mvKU-29" target="iNHvDvuXJU0Yc5A8mvKU-46">
          <mxGeometry relative="1" as="geometry" />
        </mxCell>
        <mxCell id="iNHvDvuXJU0Yc5A8mvKU-29" value="the customer is coming to checkpoint" style="rounded=1;whiteSpace=wrap;html=1;" vertex="1" parent="1">
          <mxGeometry x="510" y="320" width="120" height="60" as="geometry" />
        </mxCell>
        <mxCell id="iNHvDvuXJU0Yc5A8mvKU-50" style="edgeStyle=orthogonalEdgeStyle;rounded=0;orthogonalLoop=1;jettySize=auto;html=1;entryX=0.5;entryY=0;entryDx=0;entryDy=0;" edge="1" parent="1" source="iNHvDvuXJU0Yc5A8mvKU-34" target="iNHvDvuXJU0Yc5A8mvKU-49">
          <mxGeometry relative="1" as="geometry">
            <Array as="points">
              <mxPoint x="30" y="460" />
            </Array>
          </mxGeometry>
        </mxCell>
        <mxCell id="iNHvDvuXJU0Yc5A8mvKU-76" style="edgeStyle=orthogonalEdgeStyle;rounded=0;orthogonalLoop=1;jettySize=auto;html=1;entryX=0.5;entryY=0;entryDx=0;entryDy=0;" edge="1" parent="1" source="iNHvDvuXJU0Yc5A8mvKU-34" target="iNHvDvuXJU0Yc5A8mvKU-73">
          <mxGeometry relative="1" as="geometry" />
        </mxCell>
        <mxCell id="iNHvDvuXJU0Yc5A8mvKU-77" style="edgeStyle=orthogonalEdgeStyle;rounded=0;orthogonalLoop=1;jettySize=auto;html=1;" edge="1" parent="1" source="iNHvDvuXJU0Yc5A8mvKU-34" target="iNHvDvuXJU0Yc5A8mvKU-74">
          <mxGeometry relative="1" as="geometry" />
        </mxCell>
        <mxCell id="iNHvDvuXJU0Yc5A8mvKU-78" style="edgeStyle=orthogonalEdgeStyle;rounded=0;orthogonalLoop=1;jettySize=auto;html=1;" edge="1" parent="1" source="iNHvDvuXJU0Yc5A8mvKU-34" target="iNHvDvuXJU0Yc5A8mvKU-75">
          <mxGeometry relative="1" as="geometry" />
        </mxCell>
        <mxCell id="iNHvDvuXJU0Yc5A8mvKU-34" value="salesman is entering product indetificator" style="rounded=1;whiteSpace=wrap;html=1;" vertex="1" parent="1">
          <mxGeometry x="150" y="430" width="120" height="60" as="geometry" />
        </mxCell>
        <mxCell id="iNHvDvuXJU0Yc5A8mvKU-48" style="edgeStyle=orthogonalEdgeStyle;rounded=0;orthogonalLoop=1;jettySize=auto;html=1;entryX=0.5;entryY=0;entryDx=0;entryDy=0;" edge="1" parent="1" source="iNHvDvuXJU0Yc5A8mvKU-46" target="iNHvDvuXJU0Yc5A8mvKU-34">
          <mxGeometry relative="1" as="geometry" />
        </mxCell>
        <mxCell id="iNHvDvuXJU0Yc5A8mvKU-46" value="open new sale" style="rounded=1;whiteSpace=wrap;html=1;" vertex="1" parent="1">
          <mxGeometry x="150" y="320" width="120" height="60" as="geometry" />
        </mxCell>
        <mxCell id="iNHvDvuXJU0Yc5A8mvKU-49" value="entering product data into the database" style="rounded=1;whiteSpace=wrap;html=1;" vertex="1" parent="1">
          <mxGeometry x="-30" y="550" width="120" height="60" as="geometry" />
        </mxCell>
        <mxCell id="iNHvDvuXJU0Yc5A8mvKU-67" value="" style="endArrow=none;html=1;rounded=0;exitX=0;exitY=0.026;exitDx=0;exitDy=0;exitPerimeter=0;" edge="1" parent="1" source="iNHvDvuXJU0Yc5A8mvKU-60">
          <mxGeometry width="50" height="50" relative="1" as="geometry">
            <mxPoint x="-60" y="240" as="sourcePoint" />
            <mxPoint x="1383" y="260" as="targetPoint" />
          </mxGeometry>
        </mxCell>
        <mxCell id="iNHvDvuXJU0Yc5A8mvKU-73" value="product description" style="rounded=1;whiteSpace=wrap;html=1;" vertex="1" parent="1">
          <mxGeometry x="-180" y="550" width="120" height="60" as="geometry" />
        </mxCell>
        <mxCell id="iNHvDvuXJU0Yc5A8mvKU-74" value="product price" style="rounded=1;whiteSpace=wrap;html=1;" vertex="1" parent="1">
          <mxGeometry x="-330" y="550" width="120" height="60" as="geometry" />
        </mxCell>
        <mxCell id="iNHvDvuXJU0Yc5A8mvKU-75" value="total price" style="rounded=1;whiteSpace=wrap;html=1;" vertex="1" parent="1">
          <mxGeometry x="-490" y="550" width="120" height="60" as="geometry" />
        </mxCell>
        <mxCell id="iNHvDvuXJU0Yc5A8mvKU-79" value="System" style="text;html=1;align=center;verticalAlign=middle;whiteSpace=wrap;rounded=0;" vertex="1" parent="1">
          <mxGeometry x="-245" y="210" width="60" height="30" as="geometry" />
        </mxCell>
        <mxCell id="iNHvDvuXJU0Yc5A8mvKU-80" value="" style="rounded=0;whiteSpace=wrap;html=1;fillColor=#000000;" vertex="1" parent="1">
          <mxGeometry x="-430" y="440" width="460" height="60" as="geometry" />
        </mxCell>
        <mxCell id="iNHvDvuXJU0Yc5A8mvKU-83" value="" style="endArrow=classic;html=1;rounded=0;" edge="1" parent="1">
          <mxGeometry width="50" height="50" relative="1" as="geometry">
            <mxPoint x="60" y="460" as="sourcePoint" />
            <mxPoint x="30" y="460" as="targetPoint" />
          </mxGeometry>
        </mxCell>
        <mxCell id="iNHvDvuXJU0Yc5A8mvKU-88" style="edgeStyle=orthogonalEdgeStyle;rounded=0;orthogonalLoop=1;jettySize=auto;html=1;entryX=1;entryY=0.5;entryDx=0;entryDy=0;" edge="1" parent="1" source="iNHvDvuXJU0Yc5A8mvKU-84" target="iNHvDvuXJU0Yc5A8mvKU-87">
          <mxGeometry relative="1" as="geometry">
            <Array as="points">
              <mxPoint x="110" y="680" />
              <mxPoint x="110" y="680" />
            </Array>
          </mxGeometry>
        </mxCell>
        <mxCell id="iNHvDvuXJU0Yc5A8mvKU-89" style="edgeStyle=orthogonalEdgeStyle;rounded=0;orthogonalLoop=1;jettySize=auto;html=1;entryX=1;entryY=0.5;entryDx=0;entryDy=0;" edge="1" parent="1" source="iNHvDvuXJU0Yc5A8mvKU-84" target="iNHvDvuXJU0Yc5A8mvKU-34">
          <mxGeometry relative="1" as="geometry">
            <Array as="points">
              <mxPoint x="290" y="680" />
              <mxPoint x="290" y="460" />
            </Array>
          </mxGeometry>
        </mxCell>
        <mxCell id="iNHvDvuXJU0Yc5A8mvKU-84" value="" style="rhombus;whiteSpace=wrap;html=1;" vertex="1" parent="1">
          <mxGeometry x="195" y="665" width="30" height="30" as="geometry" />
        </mxCell>
        <mxCell id="iNHvDvuXJU0Yc5A8mvKU-86" value="&lt;font style=&quot;font-size: 9px;&quot;&gt;not all product&lt;/font&gt;" style="text;html=1;align=center;verticalAlign=middle;whiteSpace=wrap;rounded=0;" vertex="1" parent="1">
          <mxGeometry x="225" y="650" width="60" height="30" as="geometry" />
        </mxCell>
        <mxCell id="iNHvDvuXJU0Yc5A8mvKU-87" value="total price + tax" style="rounded=1;whiteSpace=wrap;html=1;" vertex="1" parent="1">
          <mxGeometry x="-260" y="650" width="120" height="60" as="geometry" />
        </mxCell>
        <mxCell id="iNHvDvuXJU0Yc5A8mvKU-90" value="&lt;font style=&quot;font-size: 9px;&quot;&gt;all prosucts&lt;/font&gt;" style="text;html=1;align=center;verticalAlign=middle;whiteSpace=wrap;rounded=0;" vertex="1" parent="1">
          <mxGeometry x="135" y="650" width="60" height="30" as="geometry" />
        </mxCell>
        <mxCell id="iNHvDvuXJU0Yc5A8mvKU-94" style="edgeStyle=orthogonalEdgeStyle;rounded=0;orthogonalLoop=1;jettySize=auto;html=1;entryX=0.5;entryY=0;entryDx=0;entryDy=0;" edge="1" parent="1" source="iNHvDvuXJU0Yc5A8mvKU-91" target="iNHvDvuXJU0Yc5A8mvKU-93">
          <mxGeometry relative="1" as="geometry" />
        </mxCell>
        <mxCell id="iNHvDvuXJU0Yc5A8mvKU-91" value="tell total price to customer" style="rounded=1;whiteSpace=wrap;html=1;" vertex="1" parent="1">
          <mxGeometry x="150" y="740" width="120" height="60" as="geometry" />
        </mxCell>
        <mxCell id="iNHvDvuXJU0Yc5A8mvKU-92" style="edgeStyle=orthogonalEdgeStyle;rounded=0;orthogonalLoop=1;jettySize=auto;html=1;entryX=-0.005;entryY=0.57;entryDx=0;entryDy=0;entryPerimeter=0;" edge="1" parent="1" source="iNHvDvuXJU0Yc5A8mvKU-87" target="iNHvDvuXJU0Yc5A8mvKU-91">
          <mxGeometry relative="1" as="geometry">
            <Array as="points">
              <mxPoint x="-200" y="774" />
            </Array>
          </mxGeometry>
        </mxCell>
        <mxCell id="iNHvDvuXJU0Yc5A8mvKU-96" style="edgeStyle=orthogonalEdgeStyle;rounded=0;orthogonalLoop=1;jettySize=auto;html=1;entryX=0.5;entryY=0;entryDx=0;entryDy=0;" edge="1" parent="1" source="iNHvDvuXJU0Yc5A8mvKU-93" target="iNHvDvuXJU0Yc5A8mvKU-95">
          <mxGeometry relative="1" as="geometry">
            <Array as="points">
              <mxPoint x="210" y="900" />
              <mxPoint x="570" y="900" />
            </Array>
          </mxGeometry>
        </mxCell>
        <mxCell id="iNHvDvuXJU0Yc5A8mvKU-93" value="offer to pay the purchace" style="rounded=1;whiteSpace=wrap;html=1;" vertex="1" parent="1">
          <mxGeometry x="150" y="830" width="120" height="60" as="geometry" />
        </mxCell>
        <mxCell id="iNHvDvuXJU0Yc5A8mvKU-100" style="edgeStyle=orthogonalEdgeStyle;rounded=0;orthogonalLoop=1;jettySize=auto;html=1;entryX=0.5;entryY=0;entryDx=0;entryDy=0;" edge="1" parent="1" source="iNHvDvuXJU0Yc5A8mvKU-95" target="iNHvDvuXJU0Yc5A8mvKU-98">
          <mxGeometry relative="1" as="geometry">
            <Array as="points">
              <mxPoint x="570" y="1000" />
              <mxPoint x="-200" y="1000" />
            </Array>
          </mxGeometry>
        </mxCell>
        <mxCell id="iNHvDvuXJU0Yc5A8mvKU-95" value="pay for purchace" style="rounded=1;whiteSpace=wrap;html=1;" vertex="1" parent="1">
          <mxGeometry x="510" y="920" width="120" height="60" as="geometry" />
        </mxCell>
        <mxCell id="iNHvDvuXJU0Yc5A8mvKU-102" style="edgeStyle=orthogonalEdgeStyle;rounded=0;orthogonalLoop=1;jettySize=auto;html=1;entryX=0.5;entryY=0;entryDx=0;entryDy=0;" edge="1" parent="1" source="iNHvDvuXJU0Yc5A8mvKU-98" target="iNHvDvuXJU0Yc5A8mvKU-101">
          <mxGeometry relative="1" as="geometry" />
        </mxCell>
        <mxCell id="iNHvDvuXJU0Yc5A8mvKU-98" value="process payment" style="rounded=1;whiteSpace=wrap;html=1;" vertex="1" parent="1">
          <mxGeometry x="-260" y="1020" width="120" height="60" as="geometry" />
        </mxCell>
        <mxCell id="iNHvDvuXJU0Yc5A8mvKU-110" style="edgeStyle=orthogonalEdgeStyle;rounded=0;orthogonalLoop=1;jettySize=auto;html=1;" edge="1" parent="1" source="iNHvDvuXJU0Yc5A8mvKU-101" target="iNHvDvuXJU0Yc5A8mvKU-106">
          <mxGeometry relative="1" as="geometry" />
        </mxCell>
        <mxCell id="iNHvDvuXJU0Yc5A8mvKU-101" value="register sale" style="rounded=1;whiteSpace=wrap;html=1;" vertex="1" parent="1">
          <mxGeometry x="-260" y="1120" width="120" height="60" as="geometry" />
        </mxCell>
        <mxCell id="iNHvDvuXJU0Yc5A8mvKU-115" style="edgeStyle=orthogonalEdgeStyle;rounded=0;orthogonalLoop=1;jettySize=auto;html=1;entryX=0.5;entryY=0;entryDx=0;entryDy=0;" edge="1" parent="1" source="iNHvDvuXJU0Yc5A8mvKU-103" target="iNHvDvuXJU0Yc5A8mvKU-114">
          <mxGeometry relative="1" as="geometry">
            <Array as="points">
              <mxPoint x="-40" y="1350" />
              <mxPoint x="-200" y="1350" />
            </Array>
          </mxGeometry>
        </mxCell>
        <mxCell id="iNHvDvuXJU0Yc5A8mvKU-103" value="send information to accounting system" style="rounded=1;whiteSpace=wrap;html=1;" vertex="1" parent="1">
          <mxGeometry x="-100" y="1270" width="120" height="60" as="geometry" />
        </mxCell>
        <mxCell id="iNHvDvuXJU0Yc5A8mvKU-116" style="edgeStyle=orthogonalEdgeStyle;rounded=0;orthogonalLoop=1;jettySize=auto;html=1;" edge="1" parent="1" source="iNHvDvuXJU0Yc5A8mvKU-105">
          <mxGeometry relative="1" as="geometry">
            <mxPoint x="-200" y="1390" as="targetPoint" />
            <Array as="points">
              <mxPoint x="-370" y="1350" />
              <mxPoint x="-200" y="1350" />
            </Array>
          </mxGeometry>
        </mxCell>
        <mxCell id="iNHvDvuXJU0Yc5A8mvKU-105" value="send information to warehouse accounting system" style="rounded=1;whiteSpace=wrap;html=1;" vertex="1" parent="1">
          <mxGeometry x="-430" y="1270" width="120" height="60" as="geometry" />
        </mxCell>
        <mxCell id="iNHvDvuXJU0Yc5A8mvKU-112" style="edgeStyle=orthogonalEdgeStyle;rounded=0;orthogonalLoop=1;jettySize=auto;html=1;entryX=0.5;entryY=0;entryDx=0;entryDy=0;" edge="1" parent="1" source="iNHvDvuXJU0Yc5A8mvKU-106" target="iNHvDvuXJU0Yc5A8mvKU-103">
          <mxGeometry relative="1" as="geometry">
            <Array as="points">
              <mxPoint x="-40" y="1225" />
              <mxPoint x="-40" y="1260" />
              <mxPoint x="-40" y="1260" />
            </Array>
          </mxGeometry>
        </mxCell>
        <mxCell id="iNHvDvuXJU0Yc5A8mvKU-113" style="edgeStyle=orthogonalEdgeStyle;rounded=0;orthogonalLoop=1;jettySize=auto;html=1;entryX=0.5;entryY=0;entryDx=0;entryDy=0;" edge="1" parent="1" source="iNHvDvuXJU0Yc5A8mvKU-106" target="iNHvDvuXJU0Yc5A8mvKU-105">
          <mxGeometry relative="1" as="geometry">
            <Array as="points">
              <mxPoint x="-370" y="1225" />
            </Array>
          </mxGeometry>
        </mxCell>
        <mxCell id="iNHvDvuXJU0Yc5A8mvKU-106" value="" style="rounded=0;whiteSpace=wrap;html=1;fillColor=#000000;" vertex="1" parent="1">
          <mxGeometry x="-325" y="1210" width="250" height="30" as="geometry" />
        </mxCell>
        <mxCell id="iNHvDvuXJU0Yc5A8mvKU-118" style="edgeStyle=orthogonalEdgeStyle;rounded=0;orthogonalLoop=1;jettySize=auto;html=1;entryX=0.5;entryY=0;entryDx=0;entryDy=0;" edge="1" parent="1" source="iNHvDvuXJU0Yc5A8mvKU-114" target="iNHvDvuXJU0Yc5A8mvKU-117">
          <mxGeometry relative="1" as="geometry">
            <Array as="points">
              <mxPoint x="-200" y="1470" />
              <mxPoint x="210" y="1470" />
            </Array>
          </mxGeometry>
        </mxCell>
        <mxCell id="iNHvDvuXJU0Yc5A8mvKU-114" value="sales receipt" style="rounded=1;whiteSpace=wrap;html=1;" vertex="1" parent="1">
          <mxGeometry x="-260" y="1390" width="120" height="60" as="geometry" />
        </mxCell>
        <mxCell id="iNHvDvuXJU0Yc5A8mvKU-120" style="edgeStyle=orthogonalEdgeStyle;rounded=0;orthogonalLoop=1;jettySize=auto;html=1;entryX=0.5;entryY=0;entryDx=0;entryDy=0;" edge="1" parent="1" source="iNHvDvuXJU0Yc5A8mvKU-117" target="iNHvDvuXJU0Yc5A8mvKU-119">
          <mxGeometry relative="1" as="geometry">
            <Array as="points">
              <mxPoint x="210" y="1590" />
              <mxPoint x="570" y="1590" />
            </Array>
          </mxGeometry>
        </mxCell>
        <mxCell id="iNHvDvuXJU0Yc5A8mvKU-117" value="give sales receipt to customer" style="rounded=1;whiteSpace=wrap;html=1;" vertex="1" parent="1">
          <mxGeometry x="150" y="1500" width="120" height="60" as="geometry" />
        </mxCell>
        <mxCell id="iNHvDvuXJU0Yc5A8mvKU-122" style="edgeStyle=orthogonalEdgeStyle;rounded=0;orthogonalLoop=1;jettySize=auto;html=1;entryX=0.5;entryY=0;entryDx=0;entryDy=0;" edge="1" parent="1" source="iNHvDvuXJU0Yc5A8mvKU-119" target="iNHvDvuXJU0Yc5A8mvKU-121">
          <mxGeometry relative="1" as="geometry" />
        </mxCell>
        <mxCell id="iNHvDvuXJU0Yc5A8mvKU-119" value="take products and receipt" style="rounded=1;whiteSpace=wrap;html=1;" vertex="1" parent="1">
          <mxGeometry x="510" y="1610" width="120" height="60" as="geometry" />
        </mxCell>
        <mxCell id="iNHvDvuXJU0Yc5A8mvKU-124" style="edgeStyle=orthogonalEdgeStyle;rounded=0;orthogonalLoop=1;jettySize=auto;html=1;entryX=0.5;entryY=0;entryDx=0;entryDy=0;" edge="1" parent="1" source="iNHvDvuXJU0Yc5A8mvKU-121" target="iNHvDvuXJU0Yc5A8mvKU-123">
          <mxGeometry relative="1" as="geometry" />
        </mxCell>
        <mxCell id="iNHvDvuXJU0Yc5A8mvKU-121" value="leave the shop" style="rounded=1;whiteSpace=wrap;html=1;" vertex="1" parent="1">
          <mxGeometry x="510" y="1710" width="120" height="60" as="geometry" />
        </mxCell>
        <mxCell id="iNHvDvuXJU0Yc5A8mvKU-123" value="" style="ellipse;html=1;shape=endState;fillColor=#000000;strokeColor=#ff0000;" vertex="1" parent="1">
          <mxGeometry x="555" y="1820" width="30" height="30" as="geometry" />
        </mxCell>
      </root>
    </mxGraphModel>
  </diagram>
</mxfile>
